# xmcd
#
# Track frame offsets:
#	150
#	24959
#	42346
#	64506
#	83908
#	107112
#	130180
#	153785
#	174726
#	193769
#	216855
#	240594
#	260740
#
# Disc length: 3714 seconds
#
# Revision: 13
# Processed by: cddbd v1.5.2PL0 Copyright (c) Steve Scherf et al.
# Submitted via: EasyCDDAExtractor 12.0.7.1
#
DISCID=ae0e800d
DTITLE=2pac - All Eyez On Me, Book 2
DYEAR=1996
DGENRE=Rap
TTITLE0=Can't C Me (feat. George Clinton)
TTITLE1=Shorty Wanna Be A Thug
TTITLE2=Holla At Me
TTITLE3=Wonda Why They Call U Bytch
TTITLE4=When We Ride (feat. Outlaw Immortalz)
TTITLE5=Thug Passion (feat. Jewell, Dramacydal and Storm)
TTITLE6=Picture Me Rollin' (feat. Danny Boy, Syke and CPO)
TTITLE7=Check Out Time (feat. Kurupt and Syke)
TTITLE8=Ratha Be Ya Nigga (feat. Richie Rich)
TTITLE9=All Eyez On Me (feat. Syke)
TTITLE10=Run Tha Streetz (feat. Michel'le, Mutah and Storm)
TTITLE11=Ain't Hard 2 Find (feat. E-40, B-Legit, C-Bo and Richie Rich)
TTITLE12=Heaven Ain't Hard 2 Find
EXTD=
EXTT0=
EXTT1=
EXTT2=
EXTT3=
EXTT4=
EXTT5=
EXTT6=
EXTT7=
EXTT8=
EXTT9=
EXTT10=
EXTT11=
EXTT12=
PLAYORDER=
